<?xml version="1.0" ?><svg data-name="Layer 1" id="Layer_1" viewBox="0 0 512 512" xmlns="http://www.w3.org/2000/svg"><path d="M386.13,402h-313V90.59A66.75,66.75,0,0,1,139.8,23.92H311a66.74,66.74,0,0,1,66.67,66.67v12.3a8.51,8.51,0,1,0,17,0V90.59A83.78,83.78,0,0,0,311,6.91H139.8A83.79,83.79,0,0,0,56.11,90.59V421.41a83.79,83.79,0,0,0,83.69,83.68H311a83.78,83.78,0,0,0,83.69-83.68v-11A8.5,8.5,0,0,0,386.13,402Zm-8.51,19.46A66.74,66.74,0,0,1,311,488.08H139.8a66.75,66.75,0,0,1-66.67-66.67V419H377.62Z"/><path d="M200,453.61h50.78a8.51,8.51,0,0,0,0-17H200a8.51,8.51,0,0,0,0,17Z"/><path d="M447.38,221.11H210.27a8.5,8.5,0,0,0-8.51,8.51v54.85l-99.55-99.56,99.55-99.56v54.86a8.51,8.51,0,0,0,8.51,8.51H447.38a8.51,8.51,0,0,0,0-17H218.78V64.81a8.5,8.5,0,0,0-14.52-6l-120,120a8.8,8.8,0,0,0,0,12.23l120,120a8.5,8.5,0,0,0,14.52-6V238.12h228.6a8.51,8.51,0,1,0,0-17Z"/><path d="M334.65,312.55H447.38a8.51,8.51,0,0,0,0-17H343.15v-31a8.5,8.5,0,0,0-14.52-6l-62.85,62.85a8.67,8.67,0,0,0,0,12.14l62.85,62.85a8.51,8.51,0,0,0,6,2.49,8.4,8.4,0,0,0,3.25-.64,8.49,8.49,0,0,0,5.25-7.86v-31H447.38a8.51,8.51,0,1,0,0-17H334.65a8.5,8.5,0,0,0-8.51,8.51v18.95l-42.37-42.37,42.37-42.37v19A8.5,8.5,0,0,0,334.65,312.55Z"/></svg>